<svg xmlns="http://www.w3.org/2000/svg" viewBox="0 0 527.22 1080"><defs><style>.cls-1{fill:#364893;}.cls-2,.cls-3{fill:#fff;}.cls-3{font-size:30px;font-family:Helvetica-Bold, Helvetica;font-weight:700;}</style></defs><title>Asset 8</title><g id="Layer_2" data-name="Layer 2"><g id="OPTIONS_TAB" data-name="OPTIONS TAB"><path class="cls-1" d="M517.52,1015.14H452.73a2.34,2.34,0,0,1-2.33-2.33V767.19a2.34,2.34,0,0,1,2.33-2.33h64.79a9.73,9.73,0,0,1,9.71,9.71v230.87A9.73,9.73,0,0,1,517.52,1015.14Z"/><path class="cls-1" d="M422.48,1080H12a12,12,0,0,1-12-12V12A12,12,0,0,1,12,0H422.48a50.15,50.15,0,0,1,50,50v980A50.15,50.15,0,0,1,422.48,1080Z"/><path class="cls-2" d="M13.66,40.76H371.39a45,45,0,0,1,45,45v910a45,45,0,0,1-45,45H13.66a10.8,10.8,0,0,1-10.8-10.8V51.56a10.8,10.8,0,0,1,10.8-10.8Z"/><text class="cls-3" transform="translate(482.98 815.64) rotate(90)">OPTIONS</text></g></g></svg>